<svg xmlns="http://www.w3.org/2000/svg" xmlns:xlink="http://www.w3.org/1999/xlink" viewBox="0 0 37.55 47.97">
	<defs>
		<style>.cls-1{fill:#fff;}.cls-1,.cls-3{fill-rule:evenodd;}.cls-2{mask:url(#mask);}.cls-3{fill:#2b98ff;}</style>
		<mask id="mask" x="0" y="0" width="37.55" height="47.97" maskUnits="userSpaceOnUse">
			<g id="mask-2">
				<polygon id="path-1" class="cls-1" points="0 0 37.55 0 37.55 47.97 0 47.97 0 0"/>
			</g>
		</mask>
	</defs>
	<g id="Layer_2" data-name="Layer 2">
	<g id="Layer_1-2" data-name="Layer 1">
	<g id="Stratus-Logo">
	<g id="Group-6">
	<g id="Group-3">
	<g class="cls-2">
	<path id="Fill-1" class="cls-3" d="M18.78,0A18.53,18.53,0,0,0,0,18.26a16.32,16.32,0,0,0,.11,2.1,6.66,6.66,0,0,0,.41,2,2.85,2.85,0,0,0,.73,1,3.59,3.59,0,0,0,2.31.84,7.72,7.72,0,0,0,2.93-.53,11.83,11.83,0,0,0,3-1.62l.05,0a78.66,78.66,0,0,0,7.31-6.29l-2.51-.63a.73.73,0,0,1-.55-.63l-.12-1.31a.72.72,0,0,1,.64-.78l4.65-.24,3.24-2.79a.75.75,0,0,1,1,0l.16.13a.7.7,0,0,1,.15.92L21.18,14l.57,4.49a.74.74,0,0,1-.68.75l-1.35.11A.73.73,0,0,1,19,18.9l-1-2.14c-1.65,2.52-4.23,6.58-6.22,10.3A18.69,18.69,0,0,0,9.4,34.58a9.65,9.65,0,0,0,1.95,6.68,29.3,29.3,0,0,0,2.9,2.89c.82.77,1.67,1.51,2.53,2.23.65.55,1.31,1.09,2,1.59,0,0,18.77-13.64,18.77-29.71A18.52,18.52,0,0,0,18.78,0"/>
	</g>
	</g>
	</g>
	</g>
	</g>
	</g>
</svg>