<svg width="24" height="24" viewBox="0 0 24 24" fill="none" xmlns="http://www.w3.org/2000/svg">
<path d="M11.9639 4.59285L12.5205 3.63082C12.8641 3.02955 13.6303 2.82684 14.2316 3.17042C14.8328 3.514 15.0356 4.28019 14.692 4.88146L9.32864 14.1651H13.2077C14.4652 14.1651 15.1696 15.6425 14.6233 16.6664H3.25064C2.55661 16.6664 2 16.1098 2 15.4157C2 14.7217 2.55661 14.1651 3.25064 14.1651H6.4391L10.5209 7.09071L9.24618 4.87803C8.90259 4.27676 9.10531 3.51744 9.70658 3.16698C10.3079 2.8234 11.0672 3.02611 11.4176 3.62738L11.9639 4.59285ZM7.14001 17.9548L5.93747 20.0404C5.59388 20.6416 4.82769 20.8444 4.22642 20.5008C3.62515 20.1572 3.42244 19.391 3.76602 18.7897L4.65934 17.2436C5.66947 16.9309 6.49064 17.1714 7.14001 17.9548ZM17.4956 14.172H20.7494C21.4434 14.172 22 14.7286 22 15.4226C22 16.1166 21.4434 16.6733 20.7494 16.6733H18.9421L20.1618 18.7897C20.5054 19.391 20.3027 20.1503 19.7014 20.5008C19.1002 20.8444 18.3408 20.6416 17.9904 20.0404C15.9358 16.4774 14.3931 13.8112 13.3692 12.0349C12.3213 10.2276 13.0703 8.4135 13.809 7.79849C14.6301 9.20718 15.8567 11.334 17.4956 14.172Z" fill="#1F84F5"/>
</svg>
