<svg xmlns="http://www.w3.org/2000/svg" width="24" height="24" viewBox="0 0 24 24"><path d="M16.7 10.4c.2.2.5.3.7.3.3 0 .5-.1.7-.3L22 6.6c.4-.4.4-1.1 0-1.5-.4-.4-1.1-.4-1.5 0l-3.8 3.8c-.4.5-.4 1.1 0 1.5zm3.4 1.9c-.4-.4-1-.4-1.4 0l-5.4 5.4c-.3.3-.8.3-1.1 0-.3-.3-.3-.8 0-1.1l2-2 2-2c.4-.4.4-1.1 0-1.5-.4-.4-1.1-.4-1.5 0l-1.2 1.2-.2.2c-.3.3-.8.3-1.1 0-.3-.3-.3-.8 0-1.1l.8-.8 3.9-3.9c.4-.4.4-1.1 0-1.5-.4-.4-1.1-.4-1.5 0l-2.3 2.3c-.2.2-.5.3-.7.3-.3 0-.5-.1-.7-.3L9.5 5.3c-1.9-1.9-4.9-1.9-6.7 0-.9.9-1.4 2-1.4 3.3 0 1.3.5 2.5 1.4 3.4l8.8 8.8c.2.2.5.3.7.3.3 0 .5-.1.7-.3l7.1-7.1c.4-.4.4-1 0-1.4zm1.2-2.6c.6 0 1.1.5 1.1 1.1 0 .6-.5 1.1-1.1 1.1-.6 0-1.1-.5-1.1-1.1.1-.6.5-1.1 1.1-1.1z" fill="#0202ea"/></svg>
