<svg xmlns="http://www.w3.org/2000/svg" width="48" height="48" viewBox="0 0 48 48" xml:space="preserve"><g fill-rule="evenodd" clip-rule="evenodd" fill="#2164F3"><path d="M35.9 7.8c-.4-1-1.1-1.8-1.8-2.4-2.4-2.1-5.3-2.9-8.2-2.8-1.7.1-3.5.5-5.2 1-6.4 2.7-11 8.5-13 15.6-.4 1.4-.6 2.6-.7 4 0 0-.1 1.4.1 1 .2-.4.3-.8.4-1.2 1-3.4 2.2-6.3 4-9.2C16 7.3 23 3.1 30.5 5.5c1.4.5 2.6 1.2 3.9 2 .2.1 1.9 1.4 1.5.3z"/><path d="M24.2 10.8c-.9 0-1.8.2-2.6.6-2.6 1.4-3.7 4.6-2.4 7.3 1.4 2.6 4.6 3.7 7.3 2.4s3.7-4.6 2.4-7.3c-.9-1.9-2.7-3-4.7-3zm-3.4 14.7v15.7c0 1.5.4 2.5 1 3.3.7.7 1.5 1.1 2.5 1.1 1.1 0 1.9-.4 2.6-1.1.6-.7 1-1.8 1-3.3V23.9c-1.7 1-3.7 1.6-5.9 1.6h-1.2z"/></g></svg>