<?xml version="1.0" encoding="utf-8"?>
<!-- Generator: Adobe Illustrator 26.0.1, SVG Export Plug-In . SVG Version: 6.00 Build 0)  -->
<svg version="1.1" id="Layer_1" xmlns="http://www.w3.org/2000/svg" xmlns:xlink="http://www.w3.org/1999/xlink" x="0px" y="0px"
	 width="48px" height="48px" viewBox="0 0 48 48" style="enable-background:new 0 0 48 48;" xml:space="preserve">
<path style="fill:#009999" d="M2,24C2,11.8,11.9,1.9,24,1.9c12.2,0,22,9.8,22,22.1s-9.8,22.1-22,22.1C11.9,46.1,2,36.2,2,24z"/>
<path style="fill:#FFFFFF" d="M46.3,26H38c-0.7,0-1.5-0.6-1.7-1.3L32.5,9.2c-0.2-1-0.7-1.6-1.4-1.6c-0.7,0-1.2,0.6-1.4,1.7l-6.1,28.9
	l-4.7-19.3c-0.2-1-0.7-1.6-1.4-1.6c-0.7,0-1.2,0.6-1.4,1.6l-2.2,9.9v0.1c0,0,0,0-0.1-0.1L13,28c-0.9-1.1-2.7-2-4.2-2h-7
	C1.9,26.6,2,27.4,2,28h6.9c0.9,0,2.2,0.6,2.6,1.3l0.6,0.8c0.6,0.7,1.4,1,2.1,0.9c0.7-0.2,1.3-0.8,1.4-1.7l1.8-8l4.8,19.4
	c0.2,1,0.7,1.6,1.4,1.6c0.7,0,1.2-0.6,1.4-1.7l6.1-28.9l3.2,13.4c0.4,1.6,1.9,2.8,3.6,2.8h8C46.1,27.4,46.2,26.6,46.3,26z"/>
</svg>
