<svg xmlns="http://www.w3.org/2000/svg" width="48" height="48" viewBox="0 0 48 48"><path d="M13.3 21.5c-2.1 0-3.8 1.7-3.8 3.8 0 2.1 1.7 3.8 3.8 3.8 2.1 0 3.8-1.7 3.8-3.8 0-2.1-1.7-3.8-3.8-3.8z"/><circle cx="34.6" cy="25.2" r="3.8"/><path d="M41.7 17.4l3.5-3.8h-7.7C29.3 8 18.6 8 10.4 13.6H2.7l3.5 3.8c-2.2 2-3.5 4.9-3.5 7.9 0 5.9 4.8 10.6 10.6 10.6 2.7 0 5.3-1 7.2-2.8l3.4 3.7 3.4-3.7c2 1.8 4.5 2.8 7.2 2.8 5.9 0 10.6-4.8 10.6-10.6.1-3.1-1.2-5.9-3.4-7.9zm-28.4 15c-4 0-7.2-3.2-7.2-7.2S9.3 18 13.3 18s7.2 3.2 7.2 7.2-3.2 7.2-7.2 7.2zM23.9 25c0-4.7-3.4-8.8-8-10.5 2.5-1.1 5.2-1.6 8-1.6 2.7 0 5.5.5 8 1.6-4.5 1.7-8 5.8-8 10.5zm17.9.2c0 4-3.2 7.2-7.2 7.2s-7.2-3.2-7.2-7.2 3.2-7.2 7.2-7.2c3.9 0 7.2 3.3 7.2 7.2z"/></svg>