<?xml version="1.0" encoding="utf-8"?>
<!-- Generator: Adobe Illustrator 26.0.1, SVG Export Plug-In . SVG Version: 6.00 Build 0)  -->
<svg version="1.1" id="Layer_1" xmlns="http://www.w3.org/2000/svg" xmlns:xlink="http://www.w3.org/1999/xlink" x="0px" y="0px"
	 width="48px" height="48px" viewBox="0 0 48 48" style="enable-background:new 0 0 48 48;" xml:space="preserve">
<g>
	<g>
		<path d="M41.3,26.4c-2.3-1.8-6.8-1.7-6.8-1.7c-0.8,0-2.5,0-3.3,0l-2.4,0c0,0,0,0,0,0l-2,0c-0.9,0-1.2,0.1-1.1,0.4
			c0,0.2,0.3,0.3,0.5,0.3c0.5,0.2,1,0.4,1,1c0,0.6,0.1,2.6,0.1,3.3v5.6c0,0.8,0,2,0,2.8l0,3.5c0,0.8,0.6,1.4,1.4,1.4l1.8,0
			c0.8,0,2,0,2.8,0c0,0,3.3,0,5.6-1.1c3.5-1.6,5.6-4.7,5.6-8.5C44.5,30.5,43.3,27.9,41.3,26.4z M33.7,41.4l-0.2,0
			c-1.1,0-2.2,0-2.7-0.6c-0.3-0.3-0.4-0.7-0.4-1.3v-8.4c0-1.7,0-2.6,0-4.5c1.4-0.2,2-0.2,3.2-0.2c2,0,4.1,0.3,5.8,2.2
			c1.2,1.3,1.8,3,1.8,5.1C41.1,38.4,38.2,41.4,33.7,41.4z M25.8,42.3c-0.5-0.2-1-0.8-1-1.2c0-0.3-0.3-15-0.3-15c0-0.8,0-1.3-0.2-1.4
			c-0.2-0.1-1.3-0.1-1.6-0.1c-0.7,0-1.2,0-1.3,0.1c-0.1,0.1-0.4,0.7-0.6,1.4l-1.3,3c-0.3,0.7-0.9,1.8-1.3,2.5l-2,4
			c-0.3,0.7-0.9,0.7-1.3,0l-2.1-3.9c-0.4-0.7-1-1.8-1.3-2.4l-1.5-3.2c-0.3-0.7-0.4-1.2-0.6-1.4c-0.1-0.1-0.7-0.1-1.4-0.1H6.1
			c-0.9,0-1.3,0-1.2,0.4c0,0.2,0.3,0.3,0.5,0.3c0.6,0.2,0.8,0.8,0.8,1.2c0,0.3,0,13.7-0.1,14.3c0,0.1,0,0.2,0,0.3c0,0,0,0,0,0
			c-0.1,0.6-0.4,1-1,1.2c-0.1,0-0.4,0.1-0.5,0.3C4.4,43,4.9,43,5.7,43l0.6,0c0,0,0.1,0,0.2,0c0,0,0,0,0,0h0.7l1.5,0
			c0.9,0,1.3,0,1.2-0.4c0-0.2-0.3-0.3-0.5-0.3c-0.6-0.2-0.8-0.5-1-1.2c0,0,0,0,0,0c-0.1-0.4-0.1-1-0.1-1c0-0.8,0-2,0-2.8l0-0.2
			c0-0.8,0-2,0-2.8l0.1-3c0-0.8,0.3-0.8,0.7-0.2l2,3.7c0.4,0.7,2.3,4.3,2.6,4.9c0.3,0.6,0.3,0.8,1.2,0.8c1,0,1-0.3,1.4-1.1
			c0.3-0.6,4.5-9,4.5-9c0.3-0.7,0.6-0.6,0.7,0.2c0,0,0.1,10.2,0,10.6c0,0.1,0,0.1,0,0.2c-0.1,0.4-0.4,0.8-0.9,0.9
			c-0.1,0-0.4,0.1-0.5,0.3C20,43,20.5,43,21.3,43l1.8,0l0.8,0l0.4,0c0,0,0,0,0,0l0.6,0c0.9,0,1.3,0,1.2-0.4
			C26.3,42.4,25.9,42.3,25.8,42.3z"/>
		<path style="fill:#0768A9" d="M25,5.9c0.1-0.3,0.4-1,0.8-1.2c0.2-0.1,0.6-0.1,0.7-0.4C26.5,4.1,26.3,4,25.3,4h-2.9c-0.9,0-1.3,0-1.2,0.4
			c0,0.2,0.3,0.3,0.5,0.3c0.8,0.2,1.4,0.7,1.1,1.5c-0.3,0.9-3.9,11.7-3.9,11.7c-0.1,0.4-0.5,0.5-0.6-0.1l-1.9-9.1
			C16.2,8,16,7,15.9,6.6c0,0-0.1-0.6-0.8-0.6c-0.5,0-0.7,0.4-0.8,0.5C14.1,7,13.6,8,13.2,8.7l-4.8,9.3c-0.2,0.3-0.5,0.2-0.5-0.2
			L7.3,8.4c0-0.7-0.1-2.2-0.1-2.4c0-0.6,0.4-1.1,1-1.3c0.1,0,0.5-0.1,0.5-0.3C8.8,4,8.4,4,7.5,4H7.3C7.2,4,4.3,4,4.3,4
			C4.1,4,4,4,3.8,4C3.2,4,3,4.1,3,4.4c0,0.2,0.3,0.3,0.5,0.3c0.4,0.1,0.7,0.4,0.8,0.7c0.1,0.2,0.1,0.4,0.1,0.4c0,0,0,0,0,0.1
			c0,0,0,0,0,0.1c0,0,0,0,0,0.1c0.2,0.7,0.3,1.8,0.4,2.5L5.6,20c0,0.8,0,1.9,0.3,2.3c0.2,0.5,1.3,0.5,1.7-0.2
			c0.1-0.2,6.2-11.5,6.2-11.5c0.4-0.7,0.8-0.6,0.9,0.1l1.9,9.3c0.2,0.7,0.3,1.6,0.5,2.1c0.3,0.7,1.6,0.6,1.9-0.1
			c0.3-0.6,0.6-1.4,0.9-2.1C19.8,20,24.8,6.4,25,5.9z M40.9,10.3c-2.4,0-4.5,2.1-5.9,3.8c0,0,0.1-0.6,0.3-1.4l2.2-7.4
			c0.2-0.7-0.2-1.3-1-1.3l-1.9,0c-0.9,0-1.3,0-1.2,0.4c0,0.2,0.3,0.3,0.5,0.3c0.9,0.2,1.2,1.2,0.9,2.3c0-0.1-2.2,8.7-2.2,8.7
			c-0.2,0.7-0.8,1.8-1.4,2.3c0,0-2.7,3.2-5.3,3.2c-1.2,0-2.1-0.7-2.1-2c0-0.7,0-1.3,0.2-2c2.8-0.3,7.8-1.6,7.8-5.1
			c0-1.4-1.4-1.9-2.6-1.9c-3.8,0-7.5,4.6-7.5,8.8c0,1.8,0.8,3.5,3.2,3.5c4.5,0,7-4.4,7.1-4.6c0,0-0.2,1.1-0.2,1.8
			c0,1.9,1.4,2.8,3.1,2.8c1.3,0,2.6-0.5,3.8-1.2c1-0.6,1.9-1.3,2.6-2.2c1.5-1.7,2.5-3.7,2.5-5.6C43.9,11.6,43,10.3,40.9,10.3z
			 M28.6,11.1c0.7,0,1.1,0.4,1.1,1.1c0,2.9-3.2,4.1-5.6,4.3C24.6,14.8,26.6,11.1,28.6,11.1z M40.6,17.3c-0.6,1.2-1.4,2.3-2.2,3.1
			c-0.9,0.9-1.9,1.5-3,1.5c-1.2,0-1.6-1.2-1.6-2.2c0-2.9,3.2-8.4,6.4-8.4c1.2,0,1.6,0.8,1.6,1.8C41.8,14.3,41.3,15.9,40.6,17.3z"/>
	</g>
</g>
</svg>
