<svg xmlns="http://www.w3.org/2000/svg" width="48" height="48" viewBox="0 0 48 48" xml:space="preserve"><path fill-rule="evenodd" clip-rule="evenodd" fill="#F9D021" d="M4.5 38.5h39.2v-4H4.5"/><path fill-rule="evenodd" clip-rule="evenodd" fill="#0A0A08" d="M39 17.5c0-2.7-1.2-5.6-4.6-5.6s-4.5 2.9-4.6 5.6c0 2.7 1.2 5.6 4.6 5.6 3.4-.1 4.6-3 4.6-5.6zM25.6 8.3H30v1.6h.1c1.3-1.2 3.3-2 5.5-2 4.6 0 8.1 4.3 8.1 9.6 0 4.9-2.9 9.6-8.6 9.6-2.3 0-4.2-.8-5-1.8v7.3h-4.4l-.1-24.3zm-8.3 20c-1.2 3.4-2.8 4.5-6 4.5-1.1 0-2.2-.2-3.1-.6v-4c.7.3 1.7.6 2.8.6 1.4 0 2-.7 2-1.6 0-.4-.1-.7-.4-1.5-.3-.8-6.8-17.4-6.8-17.4h4.8l4.7 14h.1l4.2-14h4.6l-6.9 20z"/></svg>