<svg xmlns="http://www.w3.org/2000/svg" width="48" height="48" viewBox="0 0 48 48"><path fill-rule="evenodd" clip-rule="evenodd" fill="#F43939" d="M11.9 22.6l8.2 4c1.6.8 1.3 3.1-.4 3.5l-8.9 2.2c-1.1.3-2.2-.5-2.3-1.6-.3-2.4 0-4.8.7-7 .4-1 1.7-1.6 2.7-1.1zM15.2 39.5l6.1-6.8c1.2-1.3 3.3-.4 3.3 1.3l-.3 9.1c0 1.1-1.1 2-2.2 1.8-2.4-.4-4.6-1.3-6.5-2.6-1-.6-1.2-1.9-.4-2.8zM29.7 30.5l8.7 2.8c1.1.4 1.6 1.6 1.1 2.6-1 2.1-2.5 4-4.3 5.6-.9.7-2.2.5-2.8-.5l-4.8-7.8c-1-1.4.4-3.2 2.1-2.7zM38.5 25l-8.8 2.5c-1.7.5-3.1-1.4-2.1-2.9l5.1-7.6c.6-.9 2-1.1 2.8-.4 1.8 1.5 3.2 3.5 4.2 5.7.5 1.1-.1 2.4-1.2 2.7zM18 3.7c-1.6.4-3.1 1-4.5 1.7-1 .5-1.4 1.7-.8 2.6l8.6 14.9c1 1.7 3.5 1 3.5-.9V4.7c0-1.1-.9-2-2-1.9-1.6.2-3.2.4-4.8.9z"/></svg>