<?xml version="1.0" encoding="utf-8"?>
<!-- Generator: Adobe Illustrator 26.0.1, SVG Export Plug-In . SVG Version: 6.00 Build 0)  -->
<svg version="1.1" id="Layer_1" xmlns="http://www.w3.org/2000/svg" xmlns:xlink="http://www.w3.org/1999/xlink" x="0px" y="0px"
	 width="48px" height="48px" viewBox="0 0 48 48" style="enable-background:new 0 0 48 48;" xml:space="preserve">
<path style="fill-rule:evenodd;clip-rule:evenodd;fill:#006AFF" d="M30.7,13.4c0.2,0,0.3,0,0.4,0.2c0.6,0.8,2.7,3.4,3.2,4.1c0,0,0,0.1,0,0.1c0,0,0,0.1,0,0.1c0,0,0,0.1,0,0.1
	c0,0,0,0.1-0.1,0.1c-4.1,3.4-8.7,8.2-11.3,11.6c-0.1,0.1,0,0.1,0,0.1c4.5-2,14.9-5.2,19.6-6.2v-6.3L24.2,1.8L5.7,17.2v6.9
	C11.4,20.5,24.7,14.9,30.7,13.4L30.7,13.4z M15.3,39.7c0.1,0.1,0.3,0.1,0.4,0.1c6.8-3.7,21.9-8.4,26.9-9.3v14.1H5.7V29.9
	c3.8-2.3,14-6.9,17.6-8.2c0.1,0,0.1,0,0,0.1c-3.5,2.7-8.9,9.1-11.5,13.2c-0.1,0.2-0.1,0.3,0,0.4L15.3,39.7z"/>
</svg>
