<?xml version="1.0" encoding="utf-8"?>
<!-- Generator: Adobe Illustrator 26.0.1, SVG Export Plug-In . SVG Version: 6.00 Build 0)  -->
<svg version="1.1" id="Layer_1" xmlns="http://www.w3.org/2000/svg" xmlns:xlink="http://www.w3.org/1999/xlink" x="0px" y="0px"
	 width="48px" height="48px" viewBox="0 0 48 48" style="enable-background:new 0 0 48 48;" xml:space="preserve">
<path style="fill:#333333" d="M12.1,26c0.6,0,1.2-0.2,1.7-0.5c0.5-0.3,0.9-0.8,1.1-1.4c0.2-0.6,0.3-1.2,0.2-1.8c-0.1-0.6-0.4-1.1-0.8-1.6
	c-0.4-0.4-1-0.7-1.5-0.8c-0.6-0.1-1.2,0-1.7,0.2c-0.5,0.2-1,0.6-1.3,1.1c-0.3,0.5-0.5,1.1-0.5,1.7c0,0.8,0.3,1.6,0.9,2.1
	C10.6,25.7,11.4,26,12.1,26"/>
<path style="fill:#333333" d="M36.2,26c0.6,0,1.2-0.2,1.7-0.5c0.5-0.3,0.9-0.8,1.1-1.4c0.2-0.6,0.3-1.2,0.2-1.8c-0.1-0.6-0.4-1.1-0.8-1.6
	c-0.4-0.4-1-0.7-1.5-0.8c-0.6-0.1-1.2,0-1.7,0.2c-0.5,0.2-1,0.6-1.3,1.1c-0.3,0.5-0.5,1.1-0.5,1.7c0,0.8,0.3,1.6,0.9,2.1
	C34.6,25.7,35.4,26,36.2,26"/>
<path style="fill:#333333" d="M37.2,36.6c-3.2,1.8-6.8,2.9-10.4,3.3c-3.7,0.4-7.4,0-10.9-1.2L37,7.2c0.1-0.1,0.2-0.3,0.2-0.5c0,0,0-0.1,0-0.1
	v-3h-26v4.1h20.5L11.3,38.1c-0.1,0.2-0.2,0.3-0.2,0.5v0.1v2.5c4.4,2.1,9.3,3,14.1,2.9c4.9-0.2,9.6-1.5,13.9-3.9L37.2,36.6z"/>
</svg>
